<?xml version="1.0" encoding="utf-8"?>
<!-- Generator: Adobe Illustrator 24.0.1, SVG Export Plug-In . SVG Version: 6.00 Build 0)  -->
<svg version="1.1" id="Layer_1" xmlns="http://www.w3.org/2000/svg" xmlns:xlink="http://www.w3.org/1999/xlink" x="0px" y="0px"
	 viewBox="0 0 16 16" style="enable-background:new 0 0 16 16;" xml:space="preserve">
<style type="text/css">
	.st0{fill-rule:evenodd;clip-rule:evenodd;fill:#FFFFFF;}
</style>
<path class="st0" d="M7.5,4.7C7.7,5,7.9,5.5,7.9,6c0,0.5-0.1,0.9-0.4,1.2C7.3,7.4,7.1,7.5,6.8,7.7c0.4,0.2,0.8,0.4,1,0.7
	C8,8.8,8.1,9.2,8.1,9.7c0,0.5-0.1,0.9-0.4,1.3c-0.2,0.3-0.4,0.5-0.6,0.7c-0.3,0.2-0.6,0.3-1,0.4c-0.4,0.1-0.8,0.1-1.2,0.1H1.2V3.8
	h4.1C6.3,3.8,7,4.1,7.5,4.7z M2.9,5.3v1.9h2c0.4,0,0.7-0.1,0.9-0.2c0.2-0.1,0.3-0.4,0.3-0.7c0-0.4-0.2-0.7-0.5-0.8
	c-0.3-0.1-0.6-0.1-1-0.1H2.9z M2.9,8.5v2.2h2c0.4,0,0.6,0,0.9-0.1c0.4-0.2,0.6-0.5,0.6-1.1c0-0.4-0.2-0.7-0.5-0.9
	C5.6,8.6,5.3,8.5,5,8.5H2.9z M9.5,10.6c0.2-0.6,0.8-1.1,1.6-1.8c0.8-0.5,1.2-0.9,1.5-1.2c0.3-0.4,0.5-0.8,0.5-1.2
	c0-0.4-0.1-0.6-0.3-0.9c-0.2-0.2-0.5-0.3-0.8-0.3c-0.5,0-0.8,0.2-1,0.6c-0.1,0.2-0.2,0.6-0.2,1H9.2c0-0.7,0.2-1.3,0.4-1.7
	c0.4-0.8,1.2-1.2,2.3-1.2c0.9,0,1.6,0.2,2.1,0.7c0.5,0.5,0.8,1.1,0.8,1.9c0,0.6-0.2,1.2-0.5,1.6C14,8.5,13.6,8.8,13,9.2l-0.7,0.5
	c-0.4,0.3-0.7,0.5-0.8,0.6c-0.1,0.1-0.3,0.3-0.4,0.5h3.6v1.4H9.1C9.1,11.6,9.3,11.1,9.5,10.6z"/>
</svg>
