<?xml version="1.0" encoding="utf-8"?>
<!-- Generator: Adobe Illustrator 24.0.1, SVG Export Plug-In . SVG Version: 6.00 Build 0)  -->
<svg version="1.1" id="Layer_1" xmlns="http://www.w3.org/2000/svg" xmlns:xlink="http://www.w3.org/1999/xlink" x="0px" y="0px"
	 viewBox="0 0 16 16" style="enable-background:new 0 0 16 16;" xml:space="preserve">
<style type="text/css">
	.st0{fill-rule:evenodd;clip-rule:evenodd;fill:#FFFFFF;}
</style>
<path class="st0" d="M5.6,2.5C3.5,3.5,2,5.6,2,8c0,3.3,2.7,6,6,6c3.3,0,6-2.7,6-6c0-2.7-1.8-4.9-4.2-5.7l-0.3,1
	C11.5,3.9,13,5.8,13,8c0,2.8-2.2,5-5,5c-2.8,0-5-2.2-5-5c0-1.7,0.8-3.2,2.1-4.1L5.6,2.5z"/>
<path class="st0" d="M5,3H2V2h3.5L6,2.5V6H5V3z"/>
</svg>
