<?xml version="1.0" encoding="utf-8"?>
<!-- Generator: Adobe Illustrator 24.0.1, SVG Export Plug-In . SVG Version: 6.00 Build 0)  -->
<svg version="1.1" id="Layer_1" xmlns="http://www.w3.org/2000/svg" xmlns:xlink="http://www.w3.org/1999/xlink" x="0px" y="0px"
	 viewBox="0 0 16 16" style="enable-background:new 0 0 16 16;" xml:space="preserve">
<style type="text/css">
	.st0{fill-rule:evenodd;clip-rule:evenodd;fill:#FFFFFF;}
</style>
<path class="st0" d="M12,6L12,6c0.8,0,1.6,0.3,2.2,0.9C14.7,7.4,15,8.2,15,9s-0.3,1.6-0.9,2.1C13.6,11.7,12.8,12,12,12h-2v-1h2
	c0.5,0,1-0.2,1.4-0.6S14,9.5,14,9c0-0.5-0.2-1-0.6-1.4C13,7.2,12.5,7,12,7h-0.9L11,6.1c-0.1-0.5-0.3-1-0.7-1.4
	C9.9,4.3,9.4,4.1,8.8,4c-0.5-0.1-1.1,0-1.6,0.3C6.8,4.6,6.4,5,6.2,5.5L5.9,6.3L5.1,6.1C4.9,6,4.7,6,4.5,6C3.9,6,3.2,6.3,2.8,6.7
	C2.3,7.2,2,7.8,2,8.5s0.3,1.3,0.7,1.8C3.2,10.7,3.9,11,4.5,11H7v1H4.5c-0.5,0-1-0.1-1.4-0.3c-0.5-0.2-0.9-0.5-1.2-0.9
	C1.6,10.5,1.3,10,1.2,9.6C1,9.1,1,8.6,1,8.1c0.1-0.5,0.2-1,0.5-1.4c0.3-0.4,0.6-0.8,1-1.1c0.4-0.3,0.9-0.5,1.4-0.6
	c0.5-0.1,1-0.1,1.5,0c0.3-0.7,0.8-1.3,1.5-1.6C7.5,3.1,8.2,2.9,9,3c0.8,0.1,1.4,0.4,2,1C11.5,4.6,11.8,5.2,12,6z M10.3,9.9L9,8.5V14
	H8l0-5.4L6.7,9.9L6,9.1L8.1,7h0.7L11,9.1L10.3,9.9z"/>
</svg>
