<?xml version="1.0" encoding="utf-8"?>
<!-- Generator: Adobe Illustrator 24.0.1, SVG Export Plug-In . SVG Version: 6.00 Build 0)  -->
<svg version="1.1" id="Layer_1" xmlns="http://www.w3.org/2000/svg" xmlns:xlink="http://www.w3.org/1999/xlink" x="0px" y="0px"
	 viewBox="0 0 32 32" style="enable-background:new 0 0 32 32;" xml:space="preserve">
<style type="text/css">
	.st0{fill:#FFFFFF;}
</style>
<title>Slice</title>
<desc>Created with Sketch.</desc>
<g>
	<path class="st0" d="M14.9,8.9c0.6,0.8,0.8,1.7,0.8,2.7c0,1.1-0.3,2-0.8,2.7c-0.3,0.4-0.8,0.7-1.4,1c0.9,0.3,1.6,0.9,2.1,1.6
		c0.5,0.7,0.7,1.6,0.7,2.6c0,1.1-0.3,2-0.8,2.9c-0.3,0.6-0.8,1-1.3,1.4c-0.6,0.4-1.3,0.7-2,0.9c-0.8,0.2-1.6,0.2-2.5,0.2H1.5V7h8.7
		C12.4,7,13.9,7.7,14.9,8.9z M5.1,10.1v4h4.4c0.8,0,1.4-0.1,1.9-0.4c0.5-0.3,0.7-0.8,0.7-1.6c0-0.8-0.3-1.4-1-1.7
		c-0.6-0.2-1.3-0.3-2.1-0.3H5.1z M5.1,17.1v4.8h4.4c0.8,0,1.4-0.1,1.8-0.3c0.8-0.4,1.2-1.1,1.2-2.2c0-0.9-0.4-1.6-1.1-1.9
		c-0.4-0.2-1-0.3-1.8-0.3H5.1z"/>
	<path class="st0" d="M19.2,21.5c0.5-1.2,1.7-2.4,3.5-3.8c1.6-1.1,2.6-2,3.1-2.5c0.7-0.8,1.1-1.6,1.1-2.5c0-0.7-0.2-1.4-0.6-1.9
		c-0.4-0.5-1-0.7-1.8-0.7c-1.1,0-1.8,0.4-2.2,1.2c-0.2,0.5-0.3,1.2-0.4,2.2h-3.4c0.1-1.5,0.3-2.7,0.8-3.7c0.9-1.8,2.6-2.7,5-2.7
		c1.9,0,3.4,0.5,4.5,1.6c1.1,1,1.7,2.4,1.7,4.1c0,1.3-0.4,2.5-1.2,3.5c-0.5,0.7-1.4,1.4-2.5,2.3l-1.4,1c-0.9,0.6-1.5,1.1-1.8,1.3
		c-0.3,0.3-0.6,0.6-0.8,1h7.7V25H18.4C18.4,23.7,18.7,22.6,19.2,21.5z"/>
</g>
</svg>
